<?xml version="1.0" encoding="utf-8"?>
<!-- Generator: Adobe Illustrator 19.1.1, SVG Export Plug-In . SVG Version: 6.00 Build 0)  -->
<svg version="1.1" id="レイヤー_1" xmlns="http://www.w3.org/2000/svg" xmlns:xlink="http://www.w3.org/1999/xlink" x="0px"
	 y="0px" width="280px" height="280px" viewBox="0 0 280 280" enable-background="new 0 0 280 280" xml:space="preserve">
<path fill="#F49C19" d="M207,89h-76.5l-17-17H71c-9.3,0-17,7.7-17,17v34h170v-17C224,96.7,216.4,89,207,89z"/>
<path fill="#F5C432" d="M207,89H71c-9.3,0-17,7.7-17,17v85c0,9.4,7.7,17,17,17h136c9.4,0,17-7.6,17-17v-85C224,96.7,216.4,89,207,89
	z"/>
<path fill="#03a9f5" stroke="#299DDA" stroke-miterlimit="10" d="M177.7,117.3l-8.2,6.6c5.8,7.1,8.9,16.1,8.9,25
	c0,21.8-17.6,39.5-39.5,39.5c-2.4,0-5-0.3-7.4-0.8l-1.8,10.3c3.2,0.5,6.3,0.8,9.2,0.8c27.6,0,50-22.4,50-50
	C189,137.6,185.1,126.3,177.7,117.3z"/>
<polygon fill="#03a9f5" stroke="#299DDA" stroke-miterlimit="10" points="157.4,107.1 188.7,111.3 162.9,137.1 "/>
<path fill="#03a9f5" stroke="#299DDA" stroke-miterlimit="10" d="M139,99.2c-27.6,0-50,22.4-50,50c0,12.1,4.2,23.7,12.1,32.6
	l7.9-6.8c-6.1-7.1-9.5-16.3-9.5-25.8c0-21.8,17.6-39.5,39.5-39.5c2.4,0,5,0.3,7.4,0.8l1.8-10.3C145.3,99.4,142.2,99.2,139,99.2z"/>
<polygon fill="#03a9f5" stroke="#299DDA" stroke-miterlimit="10" points="120.6,191.3 89.3,187.1 115.1,161.3 "/>
<g>
</g>
<g>
</g>
<g>
</g>
<g>
</g>
<g>
</g>
<g>
</g>
</svg>
